<svg width="25" height="25" viewBox="0 0 25 25" fill="none" xmlns="http://www.w3.org/2000/svg">
<path d="M21.5 5.68L10.09 17.1L5.85 12.86L7.26 11.45L10.09 14.28L20.09 4.28L21.5 5.68ZM11.5 20.5C7.09 20.5 3.5 16.91 3.5 12.5C3.5 8.09 7.09 4.5 11.5 4.5C13.07 4.5 14.54 4.96 15.78 5.75L17.23 4.3C15.6 3.17 13.63 2.5 11.5 2.5C5.98 2.5 1.5 6.98 1.5 12.5C1.5 18.02 5.98 22.5 11.5 22.5C13.23 22.5 14.86 22.06 16.28 21.28L14.78 19.78C13.78 20.24 12.67 20.5 11.5 20.5ZM18.5 15.5H15.5V17.5H18.5V20.5H20.5V17.5H23.5V15.5H20.5V12.5H18.5V15.5Z" fill="white"/>
</svg>
