<svg width="2268" height="2115" viewBox="0 0 2268 2115" fill="none" xmlns="http://www.w3.org/2000/svg">
<path d="M780.109 1629.31C1068.32 1651.59 917.696 2074.51 675.635 2108.65C433.574 2142.79 330.338 2035.04 264.762 1870.69C199.187 1706.34 368.624 1292.26 485.022 1292.26C601.419 1292.26 491.901 1607.03 780.109 1629.31Z" fill="#C1F35F" fill-opacity="0.15"/>
<path d="M487.72 509.65C613.521 613.15 965.852 853.166 487.72 954.496C9.58891 1055.83 76.2845 716.534 10.7092 552.186C-54.8662 387.839 195.199 234.048 366.625 185.179C538.05 136.311 361.919 406.151 487.72 509.65Z" fill="#C1F35F" fill-opacity="0.15"/>
<path d="M1371.01 1401.86C1523.19 1405.25 1537.16 1121.25 1638.57 1138.82C1739.97 1156.4 2246.4 1307.83 1975.69 1506.67C1704.97 1705.5 1746.63 1946.91 1631.97 1927.03C1517.31 1907.16 1218.83 1398.46 1371.01 1401.86Z" fill="#C1F35F" fill-opacity="0.15"/>
<path d="M1204.51 609.543C1017.42 450.904 1206.64 177.986 1462.97 86.3597C1719.3 -5.26683 1825.2 242.571 1804.83 358.318C1784.46 474.065 1545.89 385.683 1574.3 615.642C1602.71 845.601 1391.61 768.183 1204.51 609.543Z" fill="#C1F35F" fill-opacity="0.15"/>
</svg>
